<svg width="601" height="599" viewBox="0 0 601 599" fill="none" xmlns="http://www.w3.org/2000/svg">
<g id="Asteroid-parts">
<g id="Asteroid-trail">
<path id="Vector 2" d="M132.604 323.331L163.711 290.896L213.004 255.557C245.706 228.124 364.233 191.172 467.604 162.126L397.254 274.921L342.218 334.465C317.173 352.699 284.79 429.832 213.004 436.126C187.64 435.157 185.324 427.455 163.711 415.309C137.869 400.786 143.611 394.009 132.604 346.567V323.331Z" fill="url(#paint0_linear)"/>
</g>
<g id="asteroid">
<path id="asteroidShape" d="M148.264 357.063C139.456 348.564 134.942 327.541 158.575 309.411C182.62 301.208 210.793 310.822 223.061 317.572L239.127 340.114C239.127 340.114 234.283 365.825 252.872 364.022C271.461 362.218 274.164 378.174 268.125 394.152C260.079 404.554 261.152 402.162 262.861 399.286C261.484 401.42 259.276 404.814 255.888 409.972C240.165 433.91 232.08 417.051 223.922 427.597C222.238 437.673 207.658 433.096 180.389 416.048L156.197 388.484L148.264 357.063Z" fill="#B5B4B4"/>
<path id="asteroidHole3" d="M215.626 391.621C220.53 395.414 227.438 394.699 231.055 390.023C234.672 385.347 233.629 378.481 228.725 374.687C223.821 370.893 216.913 371.609 213.296 376.285C209.678 380.961 210.722 387.827 215.626 391.621Z" fill="#928A8A"/>
<path id="asteroidHole2" d="M174.974 346.071C181.513 351.129 190.945 349.888 196.042 343.299C201.139 336.71 199.97 327.268 193.431 322.21C186.892 317.151 177.459 318.392 172.363 324.982C167.266 331.571 168.435 341.013 174.974 346.071Z" fill="#928A8A"/>
<path id="asteroidHole1" d="M176.063 388.831C180.967 392.625 187.875 391.909 191.493 387.233C195.11 382.557 194.066 375.691 189.162 371.897C184.258 368.104 177.35 368.819 173.733 373.495C170.116 378.171 171.159 385.037 176.063 388.831Z" fill="#948F8F"/>
</g>
</g>
<defs>
<linearGradient id="paint0_linear" x1="88.5755" y1="287.023" x2="389.491" y2="108.535" gradientUnits="userSpaceOnUse">
<stop stop-color="#CBCBCB"/>
<stop offset="1" stop-color="#E2AEA2" stop-opacity="0"/>
</linearGradient>
</defs>
</svg>
