<svg width="1440" height="1024" viewBox="0 0 1440 1024" fill="none" xmlns="http://www.w3.org/2000/svg">
<g id="Desktop - 1" clip-path="url(#clip0)">
<g id="Moon-parts">
<g id="Moon">
<path id="moonShape" d="M1203.19 171.385C1239.75 171.385 1269.39 141.75 1269.39 105.193C1269.39 68.6354 1239.75 39 1203.19 39C1166.64 39 1137 68.6354 1137 105.193C1137 141.75 1166.64 171.385 1203.19 171.385Z" fill="white"/>
<path id="moonhole4" d="M1175.48 129.01C1185.07 129.01 1192.84 121.236 1192.84 111.648C1192.84 102.059 1185.07 94.2856 1175.48 94.2856C1165.89 94.2856 1158.12 102.059 1158.12 111.648C1158.12 121.236 1165.89 129.01 1175.48 129.01Z" fill="#E6E6E6"/>
<path id="moonHole3" d="M1195.01 68.2426C1199.21 68.2426 1202.61 64.8418 1202.61 60.6467C1202.61 56.4516 1199.21 53.0508 1195.01 53.0508C1190.82 53.0508 1187.42 56.4516 1187.42 60.6467C1187.42 64.8418 1190.82 68.2426 1195.01 68.2426Z" fill="#E6E6E6"/>
<path id="moonHole2" d="M1208.03 144.201C1212.23 144.201 1215.63 140.8 1215.63 136.605C1215.63 132.41 1212.23 129.01 1208.03 129.01C1203.84 129.01 1200.44 132.41 1200.44 136.605C1200.44 140.8 1203.84 144.201 1208.03 144.201Z" fill="#E6E6E6"/>
<path id="moonHole1" d="M1237.33 99.7112C1240.33 99.7112 1242.76 97.282 1242.76 94.2855C1242.76 91.2891 1240.33 88.8599 1237.33 88.8599C1234.33 88.8599 1231.91 91.2891 1231.91 94.2855C1231.91 97.282 1234.33 99.7112 1237.33 99.7112Z" fill="#E6E6E6"/>
</g>
<g id="moon shadow">
<path id="darkMoonShape" d="M1347.58 171.385C1384.14 171.385 1413.77 141.75 1413.77 105.193C1413.77 68.6354 1384.14 39 1347.58 39C1311.02 39 1281.39 68.6354 1281.39 105.193C1281.39 141.75 1311.02 171.385 1347.58 171.385Z" fill="#3F3D56"/>
</g>
</g>
<g id="Asteroid-parts">
<g id="Asteroid-trail">
<path id="Vector 2" d="M100.604 362.331L131.711 329.896L181.004 294.557C213.706 267.124 332.233 230.172 435.604 201.126L365.254 313.921L310.218 373.465C285.173 391.699 252.79 468.832 181.004 475.126C155.64 474.157 153.324 466.455 131.711 454.309C105.869 439.786 111.611 433.009 100.604 385.567V362.331Z" fill="url(#paint0_linear)"/>
</g>
<g id="asteroid">
<path id="asteroidShape" d="M119.66 395.937C110.852 387.438 106.338 366.415 129.971 348.285C154.016 340.083 182.189 349.697 194.456 356.447L210.522 378.989C210.522 378.989 205.679 404.699 224.268 402.896C242.857 401.093 245.559 417.048 239.521 433.026C231.474 443.428 232.547 441.036 234.257 438.16C232.88 440.295 230.672 443.688 227.284 448.846C211.561 472.784 203.476 455.925 195.318 466.472C193.634 476.548 179.054 471.97 151.785 454.922L127.593 427.359L119.66 395.937Z" fill="#B5B4B4"/>
<path id="asteroidHole3" d="M187.022 430.495C191.926 434.289 198.834 433.573 202.451 428.897C206.068 424.221 205.025 417.355 200.121 413.561C195.216 409.768 188.308 410.483 184.691 415.159C181.074 419.835 182.117 426.701 187.022 430.495Z" fill="#928A8A"/>
<path id="asteroidHole2" d="M146.369 384.945C152.908 390.003 162.341 388.762 167.438 382.173C172.535 375.584 171.366 366.142 164.827 361.084C158.288 356.026 148.855 357.267 143.758 363.856C138.661 370.445 139.83 379.887 146.369 384.945Z" fill="#928A8A"/>
<path id="asteroidHole1" d="M147.459 427.705C152.363 431.499 159.271 430.784 162.888 426.108C166.505 421.431 165.462 414.565 160.558 410.772C155.654 406.978 148.746 407.694 145.129 412.37C141.511 417.046 142.555 423.912 147.459 427.705Z" fill="#948F8F"/>
</g>
</g>
<g id="meteors">
<path id="Vector" opacity="0.8" d="M1107.57 382.725L1134.54 355.383L1161.5 328.042L1176.73 312.607C1177.57 311.753 1176.27 310.421 1175.43 311.275L1148.46 338.616L1121.5 365.958L1106.27 381.393C1105.43 382.247 1106.73 383.579 1107.57 382.725Z" fill="url(#paint1_linear)"/>
<path id="Vector_2" opacity="0.8" d="M263.145 254.45L317.077 199.767L371.009 145.084L401.454 114.214C403.139 112.506 400.539 109.842 398.855 111.55L344.923 166.233L290.991 220.916L260.546 251.786C258.861 253.494 261.461 256.158 263.145 254.45Z" fill="url(#paint2_linear)"/>
<path id="Vector_3" opacity="0.8" d="M187.923 154.255L220.893 115.657L253.864 77.0582L272.476 55.2687C273.506 54.0631 271.917 52.1823 270.887 53.3879L237.917 91.9864L204.946 130.585L186.334 152.374C185.304 153.58 186.893 155.461 187.923 154.255Z" fill="url(#paint3_linear)"/>
<path id="Vector_4" opacity="0.8" d="M1004.57 356.725L1031.54 329.384L1058.5 302.042L1073.73 286.607C1074.57 285.753 1073.27 284.421 1072.43 285.275L1045.46 312.616L1018.5 339.958L1003.27 355.393C1002.43 356.247 1003.73 357.579 1004.57 356.725Z" fill="url(#paint4_linear)"/>
<path id="Vector_5" opacity="0.8" d="M690.497 558.313L733.321 522.743L776.145 487.171L800.32 467.091C801.657 465.98 799.593 464.246 798.256 465.357L755.432 500.929L712.608 536.5L688.433 556.58C687.096 557.691 689.16 559.425 690.497 558.313Z" fill="url(#paint5_linear)"/>
<path id="Vector_6" opacity="0.8" d="M429.497 378.313L472.321 342.743L515.145 307.171L539.32 287.091C540.657 285.98 538.593 284.246 537.256 285.357L494.432 320.929L451.608 356.5L427.433 376.58C426.096 377.691 428.16 379.425 429.497 378.313Z" fill="url(#paint6_linear)"/>
</g>
</g>
<defs>
<linearGradient id="paint0_linear" x1="56.5755" y1="326.023" x2="357.491" y2="147.535" gradientUnits="userSpaceOnUse">
<stop stop-color="#CBCBCB"/>
<stop offset="1" stop-color="#E2AEA2" stop-opacity="0"/>
</linearGradient>
<linearGradient id="paint1_linear" x1="1106" y1="311" x2="1219.5" y2="311" gradientUnits="userSpaceOnUse">
<stop stop-color="white"/>
<stop offset="1" stop-color="white" stop-opacity="0"/>
</linearGradient>
<linearGradient id="paint2_linear" x1="210.5" y1="233" x2="331" y2="124" gradientUnits="userSpaceOnUse">
<stop stop-color="white"/>
<stop offset="0.5625" stop-color="white" stop-opacity="0"/>
</linearGradient>
<linearGradient id="paint3_linear" x1="186" y1="103.822" x2="272.81" y2="103.822" gradientUnits="userSpaceOnUse">
<stop stop-color="white"/>
<stop offset="0.177083" stop-color="white" stop-opacity="0.3"/>
</linearGradient>
<linearGradient id="paint4_linear" x1="970" y1="285" x2="1100" y2="285" gradientUnits="userSpaceOnUse">
<stop stop-color="white"/>
<stop offset="0.267308" stop-color="white" stop-opacity="0.610714"/>
<stop offset="1" stop-color="white" stop-opacity="0"/>
</linearGradient>
<linearGradient id="paint5_linear" x1="688" y1="511.836" x2="800.753" y2="511.836" gradientUnits="userSpaceOnUse">
<stop stop-color="white"/>
<stop offset="0.177083" stop-color="white" stop-opacity="0.3"/>
</linearGradient>
<linearGradient id="paint6_linear" x1="427" y1="331.836" x2="539.753" y2="331.836" gradientUnits="userSpaceOnUse">
<stop stop-color="white"/>
<stop offset="0.177083" stop-color="white" stop-opacity="0.3"/>
</linearGradient>
<clipPath id="clip0">
<rect width="1440" height="1024" fill="white"/>
</clipPath>
</defs>
</svg>
