<svg width="1193" height="553" viewBox="0 0 1193 553" fill="none" xmlns="http://www.w3.org/2000/svg">
<g id="Stars">
<path id="Vector" d="M76.3931 253.175C78.6815 253.175 80.5366 251.28 80.5366 248.942C80.5366 246.604 78.6815 244.708 76.3931 244.708C74.1046 244.708 72.2495 246.604 72.2495 248.942C72.2495 251.28 74.1046 253.175 76.3931 253.175Z" fill="#E6E6E6"/>
<path id="Vector_2" d="M296.392 102.148L294.324 104.247L292.269 102.133L290.891 103.533L292.944 105.645L290.877 107.744L292.246 109.153L294.314 107.054L296.368 109.168L297.747 107.768L295.693 105.655L297.761 103.557L296.392 102.148Z" fill="#E6E6E6"/>
<path id="Vector_3" d="M135.227 0.0143073L133.158 2.11262L131.105 0L129.726 1.39866L131.78 3.51193L129.712 5.61089L131.081 7.0193L133.149 4.921L135.203 7.03361L136.582 5.63495L134.528 3.52168L136.596 1.42272L135.227 0.0143073Z" fill="#E6E6E6"/>
<path id="Vector_4" d="M98.1917 174.118L96.1234 176.216L94.0696 174.103L92.6905 175.502L94.7449 177.615L92.6765 179.714L94.0461 181.123L96.1138 179.024L98.1682 181.137L99.5473 179.738L97.4929 177.625L99.5613 175.526L98.1917 174.118Z" fill="#E6E6E6"/>
<path id="Vector_5" d="M81.6176 296.89L79.5492 298.989L77.4955 296.875L76.1164 298.275L78.1708 300.388L76.1024 302.486L77.472 303.895L79.5397 301.796L81.5941 303.91L82.9732 302.51L80.9188 300.398L82.9872 298.299L81.6176 296.89Z" fill="#E6E6E6"/>
<path id="Vector_6" d="M355.783 227.742L353.715 229.841L351.66 227.728L350.282 229.127L352.336 231.24L350.267 233.339L351.637 234.748L353.705 232.649L355.76 234.762L357.138 233.363L355.084 231.25L357.152 229.151L355.783 227.742Z" fill="#FFD644"/>
<path id="Vector_7" d="M40.3018 173.627C42.5902 173.627 44.4453 171.732 44.4453 169.394C44.4453 167.056 42.5902 165.16 40.3018 165.16C38.0133 165.16 36.1582 167.056 36.1582 169.394C36.1582 171.732 38.0133 173.627 40.3018 173.627Z" fill="#D7B53C"/>
<path id="Vector_8" d="M444.42 91.0331C446.705 91.0331 448.557 88.9953 448.557 86.4815C448.557 83.9677 446.705 81.9298 444.42 81.9298C442.136 81.9298 440.283 83.9677 440.283 86.4815C440.283 88.9953 442.136 91.0331 444.42 91.0331Z" fill="#FFD644"/>
<path id="Vector_9" d="M364.759 106.356C367.048 106.356 368.903 104.461 368.903 102.122C368.903 99.7843 367.048 97.8889 364.759 97.8889C362.471 97.8889 360.616 99.7843 360.616 102.122C360.616 104.461 362.471 106.356 364.759 106.356Z" fill="#E6E6E6"/>
<path id="Vector_10" d="M190.171 193.12C192.632 193.12 194.626 191.082 194.626 188.569C194.626 186.055 192.632 184.017 190.171 184.017C187.711 184.017 185.716 186.055 185.716 188.569C185.716 191.082 187.711 193.12 190.171 193.12Z" fill="#E6E6E6"/>
<path id="Vector_11" d="M270.265 49.8748C274.079 49.8748 277.171 46.7158 277.171 42.8189C277.171 38.9221 274.079 35.763 270.265 35.763C266.451 35.763 263.359 38.9221 263.359 42.8189C263.359 46.7158 266.451 49.8748 270.265 49.8748Z" fill="#FFD644"/>
<path id="Vector_12" d="M463.383 502.265C465.672 502.265 467.527 500.37 467.527 498.032C467.527 495.694 465.672 493.798 463.383 493.798C461.095 493.798 459.24 495.694 459.24 498.032C459.24 500.37 461.095 502.265 463.383 502.265Z" fill="#E6E6E6"/>
<path id="Vector_13" d="M268 345.076C270.289 345.076 272.144 343.18 272.144 340.842C272.144 338.504 270.289 336.609 268 336.609C265.712 336.609 263.857 338.504 263.857 340.842C263.857 343.18 265.712 345.076 268 345.076Z" fill="#D7B53C"/>
<path id="Vector_14" d="M831.41 340.124C833.695 340.124 835.547 338.086 835.547 335.572C835.547 333.058 833.695 331.02 831.41 331.02C829.126 331.02 827.274 333.058 827.274 335.572C827.274 338.086 829.126 340.124 831.41 340.124Z" fill="#FFD644"/>
<path id="Vector_15" d="M751.749 355.446C754.038 355.446 755.893 353.551 755.893 351.213C755.893 348.875 754.038 346.979 751.749 346.979C749.461 346.979 747.605 348.875 747.605 351.213C747.605 353.551 749.461 355.446 751.749 355.446Z" fill="#E6E6E6"/>
<path id="Vector_16" d="M577.162 442.211C579.622 442.211 581.616 440.173 581.616 437.659C581.616 435.146 579.622 433.108 577.162 433.108C574.701 433.108 572.707 435.146 572.707 437.659C572.707 440.173 574.701 442.211 577.162 442.211Z" fill="#E6E6E6"/>
<path id="Vector_17" d="M898.091 289.484C900.25 289.484 902 287.976 902 286.117C902 284.258 900.25 282.751 898.091 282.751C895.932 282.751 894.182 284.258 894.182 286.117C894.182 287.976 895.932 289.484 898.091 289.484Z" fill="#FFD644"/>
<path id="Vector_18" d="M537.008 109.659C540.522 109.659 543.371 106.855 543.371 103.397C543.371 99.9391 540.522 97.1357 537.008 97.1357C533.494 97.1357 530.646 99.9391 530.646 103.397C530.646 106.855 533.494 109.659 537.008 109.659Z" fill="#E6E6E6"/>
<path id="Vector_19" d="M742.773 476.832L740.705 478.932L738.651 476.819L737.272 478.218L739.326 480.331L737.257 482.43L738.627 483.838L740.695 481.739L742.749 483.853L744.128 482.454L742.074 480.34L744.142 478.242L742.773 476.832Z" fill="#FFD644"/>
<path id="Vector_20" d="M468.608 545.98L466.539 548.079L464.486 545.966L463.107 547.365L465.161 549.478L463.093 551.577L464.462 552.986L466.53 550.887L468.584 553L469.963 551.601L467.909 549.488L469.977 547.389L468.608 545.98Z" fill="#E6E6E6"/>
<path id="Vector_21" d="M522.217 249.105L520.149 251.203L518.095 249.09L516.716 250.489L518.77 252.602L516.702 254.701L518.071 256.11L520.14 254.011L522.194 256.124L523.572 254.725L521.518 252.612L523.586 250.513L522.217 249.105Z" fill="#E6E6E6"/>
<path id="Vector_22" d="M5.51519 413.562L3.44685 415.66L1.39316 413.548L0.0139722 414.946L2.06834 417.059L0 419.159L1.36961 420.567L3.43727 418.469L5.49165 420.581L6.87083 419.183L4.81646 417.07L6.88481 414.97L5.51519 413.562Z" fill="#E6E6E6"/>
<path id="Vector_23" d="M683.382 351.238L681.314 353.337L679.26 351.223L677.881 352.623L679.935 354.736L677.867 356.835L679.236 358.244L681.304 356.144L683.358 358.258L684.737 356.859L682.683 354.745L684.751 352.647L683.382 351.238Z" fill="#E6E6E6"/>
<path id="Vector_24" d="M928.091 110.484C930.25 110.484 932 108.976 932 107.117C932 105.258 930.25 103.751 928.091 103.751C925.932 103.751 924.182 105.258 924.182 107.117C924.182 108.976 925.932 110.484 928.091 110.484Z" fill="#FFD644"/>
<path id="Vector_25" d="M1185.27 108.875C1189.08 108.875 1192.17 105.716 1192.17 101.819C1192.17 97.9221 1189.08 94.763 1185.27 94.763C1181.45 94.763 1178.36 97.9221 1178.36 101.819C1178.36 105.716 1181.45 108.875 1185.27 108.875Z" fill="#FFD644"/>
<path id="Vector_26" d="M1123.19 252.118L1121.12 254.216L1119.07 252.103L1117.69 253.502L1119.74 255.615L1117.68 257.714L1119.05 259.123L1121.11 257.024L1123.17 259.137L1124.55 257.738L1122.49 255.625L1124.56 253.526L1123.19 252.118Z" fill="#E6E6E6"/>
<path id="Vector_27" d="M977.759 451.356C980.048 451.356 981.903 449.46 981.903 447.122C981.903 444.784 980.048 442.889 977.759 442.889C975.471 442.889 973.616 444.784 973.616 447.122C973.616 449.46 975.471 451.356 977.759 451.356Z" fill="#E6E6E6"/>
</g>
</svg>
