<svg width="991" height="506" viewBox="0 0 991 506" fill="none" xmlns="http://www.w3.org/2000/svg">
<g id="meteors">
<path id="Vector" opacity="0.8" d="M921.573 329.725L948.538 302.383L975.505 275.042L990.727 259.607C991.569 258.753 990.27 257.421 989.427 258.275L962.461 285.616L935.496 312.958L920.273 328.393C919.431 329.247 920.73 330.579 921.573 329.725Z" fill="url(#paint0_linear)"/>
<path id="Vector_2" opacity="0.8" d="M77.1451 201.45L131.077 146.767L185.009 92.0838L215.454 61.2142C217.139 59.5062 214.539 56.8416 212.855 58.5495L158.923 113.233L104.991 167.916L74.5457 198.786C72.8612 200.494 75.4607 203.158 77.1451 201.45Z" fill="url(#paint1_linear)"/>
<path id="Vector_3" opacity="0.8" d="M1.92274 101.255L34.8933 62.6568L67.8639 24.0582L86.4763 2.26873C87.5061 1.06313 85.9169 -0.817681 84.8872 0.387869L51.9166 38.9864L18.9461 77.585L0.333633 99.3745C-0.696187 100.58 0.892974 102.461 1.92274 101.255Z" fill="url(#paint2_linear)"/>
<path id="Vector_4" opacity="0.8" d="M818.573 303.725L845.538 276.384L872.505 249.042L887.727 233.607C888.569 232.753 887.27 231.421 886.427 232.275L859.461 259.616L832.496 286.958L817.273 302.393C816.431 303.247 817.73 304.579 818.573 303.725Z" fill="url(#paint3_linear)"/>
<path id="Vector_5" opacity="0.8" d="M504.497 505.313L547.321 469.743L590.145 434.171L614.32 414.091C615.657 412.98 613.593 411.246 612.256 412.357L569.432 447.929L526.608 483.5L502.433 503.58C501.096 504.691 503.16 506.425 504.497 505.313Z" fill="url(#paint4_linear)"/>
<path id="Vector_6" opacity="0.8" d="M243.497 325.313L286.321 289.743L329.145 254.171L353.32 234.091C354.657 232.98 352.593 231.246 351.256 232.357L308.432 267.929L265.608 303.5L241.433 323.58C240.096 324.691 242.16 326.425 243.497 325.313Z" fill="url(#paint5_linear)"/>
</g>
<defs>
<linearGradient id="paint0_linear" x1="920" y1="258" x2="1033.5" y2="258" gradientUnits="userSpaceOnUse">
<stop stop-color="white"/>
<stop offset="1" stop-color="white" stop-opacity="0"/>
</linearGradient>
<linearGradient id="paint1_linear" x1="24.5" y1="180" x2="145" y2="71" gradientUnits="userSpaceOnUse">
<stop stop-color="white"/>
<stop offset="0.5625" stop-color="white" stop-opacity="0"/>
</linearGradient>
<linearGradient id="paint2_linear" x1="-8.56099e-07" y1="50.8216" x2="86.81" y2="50.8216" gradientUnits="userSpaceOnUse">
<stop stop-color="white"/>
<stop offset="0.177083" stop-color="white" stop-opacity="0.3"/>
</linearGradient>
<linearGradient id="paint3_linear" x1="784" y1="232" x2="914" y2="232" gradientUnits="userSpaceOnUse">
<stop stop-color="white"/>
<stop offset="0.267308" stop-color="white" stop-opacity="0.610714"/>
<stop offset="1" stop-color="white" stop-opacity="0"/>
</linearGradient>
<linearGradient id="paint4_linear" x1="502" y1="458.836" x2="614.753" y2="458.836" gradientUnits="userSpaceOnUse">
<stop stop-color="white"/>
<stop offset="0.177083" stop-color="white" stop-opacity="0.3"/>
</linearGradient>
<linearGradient id="paint5_linear" x1="241" y1="278.836" x2="353.753" y2="278.836" gradientUnits="userSpaceOnUse">
<stop stop-color="white"/>
<stop offset="0.177083" stop-color="white" stop-opacity="0.3"/>
</linearGradient>
</defs>
</svg>
