<svg width="276" height="140" viewBox="0 0 276 140" fill="none" xmlns="http://www.w3.org/2000/svg">
<g id="Moon-parts">
<g id="Moon">
<path id="moonShape" d="M66.1926 132.385C102.75 132.385 132.385 102.75 132.385 66.1926C132.385 29.6354 102.75 0 66.1926 0C29.6355 0 0 29.6354 0 66.1926C0 102.75 29.6355 132.385 66.1926 132.385Z" fill="white"/>
<path id="moonhole4" d="M38.4789 90.0095C48.0677 90.0095 55.8409 82.2363 55.8409 72.6475C55.8409 63.0588 48.0677 55.2856 38.4789 55.2856C28.8902 55.2856 21.1169 63.0588 21.1169 72.6475C21.1169 82.2363 28.8902 90.0095 38.4789 90.0095Z" fill="#E6E6E6"/>
<path id="moonHole3" d="M58.0112 29.2426C62.2063 29.2426 65.6071 25.8418 65.6071 21.6467C65.6071 17.4516 62.2063 14.0508 58.0112 14.0508C53.8161 14.0508 50.4153 17.4516 50.4153 21.6467C50.4153 25.8418 53.8161 29.2426 58.0112 29.2426Z" fill="#E6E6E6"/>
<path id="moonHole2" d="M71.0327 105.201C75.2277 105.201 78.6285 101.8 78.6285 97.6054C78.6285 93.4103 75.2277 90.0095 71.0327 90.0095C66.8376 90.0095 63.4368 93.4103 63.4368 97.6054C63.4368 101.8 66.8376 105.201 71.0327 105.201Z" fill="#E6E6E6"/>
<path id="moonHole1" d="M100.331 60.7112C103.327 60.7112 105.757 58.282 105.757 55.2855C105.757 52.2891 103.327 49.8599 100.331 49.8599C97.3344 49.8599 94.9053 52.2891 94.9053 55.2855C94.9053 58.282 97.3344 60.7112 100.331 60.7112Z" fill="#E6E6E6"/>
</g>
<g id="moon shadow">
<path id="darkMoonShape" d="M209.193 139.385C245.75 139.385 275.385 109.75 275.385 73.1926C275.385 36.6354 245.75 7 209.193 7C172.635 7 143 36.6354 143 73.1926C143 109.75 172.635 139.385 209.193 139.385Z" fill="#3F3D56"/>
</g>
</g>
</svg>
