<svg width="1440" height="1024" viewBox="0 0 1440 1024" fill="none" xmlns="http://www.w3.org/2000/svg">
<g id="Desktop - 1">
<g id="Moon">
<path id="Vector" d="M1201.19 234.385C1237.75 234.385 1267.39 204.75 1267.39 168.193C1267.39 131.635 1237.75 102 1201.19 102C1164.64 102 1135 131.635 1135 168.193C1135 204.75 1164.64 234.385 1201.19 234.385Z" fill="#E6E6E6"/>
<path id="Vector_2" d="M1193.01 131.243C1197.21 131.243 1200.61 127.842 1200.61 123.647C1200.61 119.452 1197.21 116.051 1193.01 116.051C1188.82 116.051 1185.42 119.452 1185.42 123.647C1185.42 127.842 1188.82 131.243 1193.01 131.243Z" fill="#CBCBCB"/>
<path id="Vector_3" d="M1206.03 207.201C1210.23 207.201 1213.63 203.8 1213.63 199.605C1213.63 195.41 1210.23 192.01 1206.03 192.01C1201.84 192.01 1198.44 195.41 1198.44 199.605C1198.44 203.8 1201.84 207.201 1206.03 207.201Z" fill="#CBCBCB"/>
<path id="Vector_4" d="M1235.33 162.711C1238.33 162.711 1240.76 160.282 1240.76 157.286C1240.76 154.289 1238.33 151.86 1235.33 151.86C1232.33 151.86 1229.91 154.289 1229.91 157.286C1229.91 160.282 1232.33 162.711 1235.33 162.711Z" fill="#CBCBCB"/>
<path id="Vector_5" d="M1173.48 192.01C1183.07 192.01 1190.84 184.236 1190.84 174.648C1190.84 165.059 1183.07 157.286 1173.48 157.286C1163.89 157.286 1156.12 165.059 1156.12 174.648C1156.12 184.236 1163.89 192.01 1173.48 192.01Z" fill="#CBCBCB"/>
</g>
<g id="Asteroid">
<path id="Vector 1" d="M589.542 554.783C580.734 546.284 576.22 525.261 599.853 507.131C623.898 498.928 652.071 508.542 664.338 515.292L680.405 537.834C680.405 537.834 675.561 563.545 694.15 561.742C712.739 559.938 715.442 575.894 709.403 591.872C701.357 602.274 702.429 599.882 704.139 597.006C702.762 599.14 700.554 602.534 697.166 607.692C681.443 631.63 673.358 614.771 665.2 625.317C663.516 635.393 648.936 630.816 621.667 613.768L597.475 586.204L589.542 554.783Z" fill="#C4C4C4"/>
<path id="Vector_6" d="M656.904 589.341C661.808 593.134 668.716 592.419 672.333 587.743C675.95 583.067 674.907 576.2 670.003 572.407C665.098 568.613 658.191 569.329 654.573 574.005C650.956 578.681 652 585.547 656.904 589.341Z" fill="#928A8A"/>
<path id="Vector_7" d="M616.252 543.791C622.79 548.849 632.223 547.608 637.32 541.019C642.417 534.43 641.248 524.988 634.709 519.929C628.17 514.871 618.737 516.112 613.64 522.701C608.543 529.29 609.712 538.732 616.252 543.791Z" fill="#928A8A"/>
<path id="Vector_8" d="M617.341 586.551C622.245 590.345 629.153 589.629 632.77 584.953C636.387 580.277 635.344 573.411 630.44 569.617C625.536 565.824 618.628 566.539 615.01 571.215C611.393 575.891 612.437 582.757 617.341 586.551Z" fill="#948F8F"/>
</g>
<g id="Stars">
<path id="Vector_9" d="M416.172 365.247C418.513 365.247 420.412 363.276 420.412 360.845C420.412 358.414 418.513 356.443 416.172 356.443C413.83 356.443 411.932 358.414 411.932 360.845C411.932 363.276 413.83 365.247 416.172 365.247Z" fill="#E6E6E6"/>
<path id="Vector_10" d="M641.292 208.211L639.176 210.394L637.074 208.196L635.663 209.651L637.765 211.848L635.649 214.031L637.05 215.496L639.166 213.313L641.268 215.511L642.679 214.056L640.577 211.858L642.693 209.676L641.292 208.211Z" fill="#E6E6E6"/>
<path id="Vector_11" d="M476.375 102.015L474.259 104.197L472.157 102L470.746 103.454L472.848 105.652L470.731 107.834L472.133 109.299L474.249 107.117L476.351 109.313L477.762 107.859L475.66 105.662L477.776 103.479L476.375 102.015Z" fill="#E6E6E6"/>
<path id="Vector_12" d="M438.478 283.045L436.361 285.226L434.26 283.03L432.849 284.484L434.951 286.681L432.834 288.864L434.236 290.328L436.352 288.147L438.454 290.343L439.865 288.889L437.763 286.692L439.879 284.509L438.478 283.045Z" fill="#E6E6E6"/>
<path id="Vector_13" d="M421.518 410.701L419.401 412.883L417.3 410.686L415.888 412.141L417.991 414.338L415.874 416.52L417.276 417.985L419.391 415.803L421.494 418L422.905 416.545L420.803 414.348L422.919 412.166L421.518 410.701Z" fill="#E6E6E6"/>
<path id="Vector_14" d="M702.066 338.802L699.95 340.985L697.848 338.788L696.437 340.243L698.539 342.44L696.422 344.622L697.824 346.087L699.94 343.904L702.042 346.102L703.453 344.647L701.351 342.449L703.467 340.268L702.066 338.802Z" fill="#FFD644"/>
<path id="Vector_15" d="M379.24 282.535C381.582 282.535 383.48 280.564 383.48 278.133C383.48 275.702 381.582 273.731 379.24 273.731C376.898 273.731 375 275.702 375 278.133C375 280.564 376.898 282.535 379.24 282.535Z" fill="#D7B53C"/>
<path id="Vector_16" d="M792.767 196.655C795.105 196.655 797 194.536 797 191.922C797 189.308 795.105 187.189 792.767 187.189C790.429 187.189 788.534 189.308 788.534 191.922C788.534 194.536 790.429 196.655 792.767 196.655Z" fill="#FFD644"/>
<path id="Vector_17" d="M711.251 212.587C713.593 212.587 715.491 210.616 715.491 208.185C715.491 205.754 713.593 203.783 711.251 203.783C708.91 203.783 707.011 205.754 707.011 208.185C707.011 210.616 708.91 212.587 711.251 212.587Z" fill="#E6E6E6"/>
<path id="Vector_18" d="M532.599 302.803C535.116 302.803 537.157 300.684 537.157 298.07C537.157 295.457 535.116 293.338 532.599 293.338C530.081 293.338 528.04 295.457 528.04 298.07C528.04 300.684 530.081 302.803 532.599 302.803Z" fill="#E6E6E6"/>
<path id="Vector_19" d="M614.557 153.859C618.46 153.859 621.624 150.574 621.624 146.522C621.624 142.47 618.46 139.186 614.557 139.186C610.655 139.186 607.491 142.47 607.491 146.522C607.491 150.574 610.655 153.859 614.557 153.859Z" fill="#FFD644"/>
</g>
<g id="meteors">
<path id="Vector_20" opacity="0.8" d="M821.724 209.458L868.44 155.535L915.156 101.611L941.527 71.1695C942.987 69.4852 940.735 66.8577 939.276 68.5419L892.56 122.466L845.844 176.39L819.473 206.831C818.014 208.515 820.265 211.142 821.724 209.458Z" fill="url(#paint0_linear)"/>
<path id="Vector_21" opacity="0.8" d="M1151.57 453.725L1178.54 426.383L1205.5 399.042L1220.73 383.607C1221.57 382.753 1220.27 381.421 1219.43 382.275L1192.46 409.616L1165.5 436.958L1150.27 452.393C1149.43 453.247 1150.73 454.579 1151.57 453.725Z" fill="url(#paint1_linear)"/>
<path id="Vector_22" d="M887.511 216.021C891.107 216.021 894.021 213.107 894.021 209.511C894.021 205.915 891.107 203 887.511 203C883.915 203 881 205.915 881 209.511C881 213.107 883.915 216.021 887.511 216.021Z" fill="#E6E6E6"/>
<path id="Vector_23" opacity="0.8" d="M307.145 325.45L361.077 270.767L415.009 216.084L445.454 185.214C447.139 183.506 444.539 180.842 442.855 182.55L388.923 237.233L334.991 291.916L304.546 322.786C302.861 324.494 305.461 327.158 307.145 325.45V325.45Z" fill="url(#paint2_linear)"/>
<path id="Vector_24" opacity="0.8" d="M231.923 225.255L264.893 186.657L297.864 148.058L316.476 126.269C317.506 125.063 315.917 123.182 314.887 124.388L281.917 162.986L248.946 201.585L230.334 223.374C229.304 224.58 230.893 226.461 231.923 225.255V225.255Z" fill="url(#paint3_linear)"/>
<path id="Vector_25" opacity="0.8" d="M860.573 536.725L887.538 509.384L914.505 482.042L929.727 466.607C930.569 465.753 929.269 464.421 928.427 465.275L901.461 492.616L874.496 519.958L859.273 535.393C858.431 536.247 859.73 537.579 860.573 536.725Z" fill="url(#paint4_linear)"/>
<path id="Vector_26" d="M1257 403C1259.21 403 1261 401.433 1261 399.5C1261 397.567 1259.21 396 1257 396C1254.79 396 1253 397.567 1253 399.5C1253 401.433 1254.79 403 1257 403Z" fill="#FFD644"/>
<path id="Vector_27" d="M928.599 561.803C931.116 561.803 933.157 559.684 933.157 557.07C933.157 554.457 931.116 552.338 928.599 552.338C926.081 552.338 924.04 554.457 924.04 557.07C924.04 559.684 926.081 561.803 928.599 561.803Z" fill="#E6E6E6"/>
<path id="Vector_28" d="M1107.25 471.587C1109.59 471.587 1111.49 469.616 1111.49 467.185C1111.49 464.754 1109.59 462.783 1107.25 462.783C1104.91 462.783 1103.01 464.754 1103.01 467.185C1103.01 469.616 1104.91 471.587 1107.25 471.587Z" fill="#E6E6E6"/>
<path id="Vector_29" d="M1188.77 455.655C1191.1 455.655 1193 453.536 1193 450.922C1193 448.308 1191.1 446.189 1188.77 446.189C1186.43 446.189 1184.53 448.308 1184.53 450.922C1184.53 453.536 1186.43 455.655 1188.77 455.655Z" fill="#FFD644"/>
<path id="Vector_30" d="M612.24 460.804C614.582 460.804 616.48 458.833 616.48 456.402C616.48 453.971 614.582 452 612.24 452C609.898 452 608 453.971 608 456.402C608 458.833 609.898 460.804 612.24 460.804Z" fill="#D7B53C"/>
<path id="Vector_31" d="M1098.07 597.802L1095.95 599.985L1093.85 597.788L1092.44 599.243L1094.54 601.44L1092.42 603.622L1093.82 605.087L1095.94 602.904L1098.04 605.102L1099.45 603.647L1097.35 601.449L1099.47 599.268L1098.07 597.802Z" fill="#FFD644"/>
<path id="Vector_32" d="M817.518 669.701L815.401 671.883L813.3 669.686L811.888 671.141L813.991 673.338L811.874 675.52L813.276 676.985L815.391 674.803L817.494 677L818.905 675.545L816.803 673.348L818.919 671.166L817.518 669.701Z" fill="#E6E6E6"/>
<path id="Vector_33" d="M872.375 361.015L870.259 363.197L868.157 361L866.746 362.454L868.848 364.652L866.731 366.834L868.133 368.299L870.249 366.117L872.351 368.313L873.762 366.859L871.66 364.662L873.776 362.479L872.375 361.015Z" fill="#E6E6E6"/>
<path id="Vector_34" d="M343.644 532.015L341.527 534.196L339.426 532L338.014 533.454L340.116 535.651L338 537.834L339.401 539.298L341.517 537.117L343.619 539.313L345.031 537.859L342.929 535.662L345.045 533.479L343.644 532.015Z" fill="#E6E6E6"/>
<path id="Vector_35" d="M1037.29 467.211L1035.18 469.394L1033.07 467.196L1031.66 468.651L1033.76 470.848L1031.65 473.031L1033.05 474.496L1035.17 472.313L1037.27 474.511L1038.68 473.056L1036.58 470.858L1038.69 468.676L1037.29 467.211Z" fill="#E6E6E6"/>
<path id="Vector_36" d="M812.172 624.247C814.513 624.247 816.412 622.276 816.412 619.845C816.412 617.414 814.513 615.443 812.172 615.443C809.83 615.443 807.932 617.414 807.932 619.845C807.932 622.276 809.83 624.247 812.172 624.247Z" fill="#E6E6E6"/>
</g>
<g id="moon shadow">
<path id="Vector_37" d="M1354.19 234.385C1390.75 234.385 1420.38 204.75 1420.38 168.193C1420.38 131.635 1390.75 102 1354.19 102C1317.64 102 1288 131.635 1288 168.193C1288 204.75 1317.64 234.385 1354.19 234.385Z" fill="#3F3D56"/>
</g>
</g>
<defs>
<linearGradient id="paint0_linear" x1="78465.7" y1="76102.6" x2="89143.4" y2="76102.6" gradientUnits="userSpaceOnUse">
<stop stop-color="white"/>
<stop offset="1" stop-color="white" stop-opacity="0.3"/>
</linearGradient>
<linearGradient id="paint1_linear" x1="45970.4" y1="38934.7" x2="52134" y2="38934.7" gradientUnits="userSpaceOnUse">
<stop stop-color="white"/>
<stop offset="1" stop-color="white" stop-opacity="0.3"/>
</linearGradient>
<linearGradient id="paint2_linear" x1="89944.9" y1="77287.3" x2="102272" y2="77287.3" gradientUnits="userSpaceOnUse">
<stop stop-color="#CDCCCA"/>
<stop offset="1" stop-color="white" stop-opacity="0.3"/>
</linearGradient>
<linearGradient id="paint3_linear" x1="230" y1="174.822" x2="316.81" y2="174.822" gradientUnits="userSpaceOnUse">
<stop stop-color="white"/>
<stop offset="1" stop-color="white" stop-opacity="0.3"/>
</linearGradient>
<linearGradient id="paint4_linear" x1="45679.4" y1="39017.7" x2="51843" y2="39017.7" gradientUnits="userSpaceOnUse">
<stop stop-color="white"/>
<stop offset="1" stop-color="white" stop-opacity="0.3"/>
</linearGradient>
</defs>
</svg>
